#!OML:ASF E:\Style4\Style4.ASF
:FULLY-SPECIFIED
:DEGREES
2995
root -0.353183 17.7495 -2.08507 -0.0459271 -1.01435 1.93893
lowerback 9.47185 2.11992 -3.36742
upperback 4.62848 2.49888 -1.9839
thorax -0.553266 1.21885 -0.404284
lowerneck -0.742551 -2.76959 -6.18763
upperneck 11.3973 -3.86842 4.24003
head 4.13442 -1.99541 2.38657
rclavicle 4.24405e-014 -1.19271e-014
rhumerus -400.152 24.7384 -443.166
rradius 127.762
rwrist -46.7164
rhand -22.2161 24.3389
rfingers 7.12502
rthumb 4.20012 -5.59947
lclavicle 4.24405e-014 -1.19271e-014
lhumerus -19.9655 -32.2217 81.4867
lradius 92.9973
lwrist 35.0681
lhand -12.6411 25.7964
lfingers 7.12502
lthumb 13.4392 55.3428
rfemur -14.2557 1.06585 17.0079
rtibia 33.4732
rfoot -18.7473 -11.3265
rtoes -8.06348
lfemur -10.2333 0.823828 -20.2996
ltibia 29.9623
lfoot -19.4784 9.47276
ltoes -14.4478
2996
root -0.348777 17.7571 -2.08823 0.107648 -1.02973 1.8675
lowerback 9.41548 2.20388 -3.2388
upperback 4.60055 2.62299 -1.96613
thorax -0.549214 1.2827 -0.468525
lowerneck -0.759106 -2.81613 -6.11442
upperneck 11.2067 -3.94201 4.36577
head 4.07555 -2.02235 2.41226
rclavicle 6.95746e-015 -7.95139e-016
rhumerus -398.076 24.5007 -442.119
rradius 127.95
rwrist -46.9355
rhand -21.9916 23.9878
rfingers 7.12502
rthumb 4.41691 -5.94609
lclavicle 6.95746e-015 -7.95139e-016
lhumerus -21.9898 -32.9085 82.4113
lradius 93.2046
lwrist 35.1192
lhand -12.8101 26.0956
lfingers 7.12502
lthumb 13.2763 55.6527
rfemur -14.3339 1.17468 17.0675
rtibia 33.2568
rfoot -18.5775 -11.3931
rtoes -7.97372
lfemur -10.4059 0.804934 -20.2457
ltibia 29.9194
lfoot -19.5155 9.50671
ltoes -13.9117
2997
root -0.34482 17.7662 -2.08978 0.283773 -1.05228 1.766
lowerback 9.31559 2.29133 -3.05825
upperback 4.56775 2.75794 -1.94612
thorax -0.523871 1.35255 -0.558595
lowerneck -0.790345 -2.87127 -5.94056
upperneck 10.9838 -4.02116 4.40766
head 4.00214 -2.05106 2.38955
rclavicle -2.5842e-015 2.26615e-014
rhumerus -396.112 24.2194 -441.193
rradius 128.06
rwrist -47.2366
rhand -21.5999 23.7665
rfingers 7.12502
rthumb 4.79514 -6.15925
lclavicle -2.5842e-015 2.26615e-014
lhumerus -24.133 -33.5285 83.3776
lradius 93.4477
lwrist 35.0071
lhand -12.8042 25.6261
lfingers 7.12502
lthumb 13.2819 55.1828
rfemur -14.359 1.26018 17.1615
rtibia 32.9057
rfoot -18.3746 -11.4545
rtoes -8.05073
lfemur -10.5969 0.811789 -20.1668
ltibia 29.9081
lfoot -19.5415 9.56598
ltoes -13.6655
2998
root -0.342409 17.7775 -2.09312 0.446497 -1.097 1.46663
lowerback 9.28382 2.4036 -2.67371
upperback 4.51293 2.93927 -1.85336
thorax -0.552648 1.44827 -0.695112
lowerneck -0.76471 -2.97142 -5.86421
upperneck 10.6835 -4.16316 4.50994
head 3.8999 -2.11318 2.40335
rclavicle -3.84648e-014 -3.97569e-016
rhumerus -394.309 24.0242 -440.417
rradius 127.997
rwrist -47.0332
rhand -20.7376 23.5105
rfingers 7.12502
rthumb 5.62766 -6.39476
lclavicle -3.84648e-014 -3.97569e-016
lhumerus -26.3531 -34.1356 84.4233
lradius 93.678
lwrist 34.7492
lhand -12.7212 25.1903
lfingers 7.12502
lthumb 13.362 54.7419
rfemur -14.3722 1.45557 17.4884
rtibia 32.5022
rfoot -18.0933 -11.6545
rtoes -8.76209
lfemur -10.7551 0.907363 -19.8498
ltibia 29.841
lfoot -19.436 9.63977
ltoes -14.1052
2999
root -0.337677 17.7901 -2.09456 0.526242 -1.22068 1.07033
lowerback 9.30736 2.52435 -2.18351
upperback 4.49669 3.14014 -1.70082
thorax -0.567717 1.55416 -0.832311
lowerneck -0.839817 -3.0784 -5.87284
upperneck 10.4757 -4.31485 4.68913
head 3.85705 -2.18021 2.45895
rclavicle -6.89783e-014 3.85642e-014
rhumerus -392.437 23.8702 -439.555
rradius 127.816
rwrist -46.9498
rhand -20.0649 23.2081
rfingers 7.12502
rthumb 6.27719 -6.67885
lclavicle -6.89783e-014 3.85642e-014
lhumerus -28.5425 -34.6353 85.4858
lradius 93.8968
lwrist 34.4593
lhand -12.5469 25.1685
lfingers 7.12502
lthumb 13.53 54.7089
rfemur -14.2964 1.76449 17.9358
rtibia 32.105
rfoot -17.7362 -11.8775
rtoes -9.62095
lfemur -10.7573 1.04142 -19.4173
ltibia 29.6672
lfoot -19.3377 9.69819
ltoes -14.2082
3000
root -0.329119 17.8047 -2.09053 0.664234 -1.39808 1.07554
lowerback 9.19121 2.663 -2.09038
upperback 4.49166 3.33628 -1.6394
thorax -0.508321 1.65252 -0.834389
lowerneck -1.01811 -3.17135 -5.85585
upperneck 10.3501 -4.43916 4.80286
head 3.85861 -2.23426 2.48772
rclavicle 3.07122e-014 -1.51076e-014
rhumerus -390.456 23.6867 -438.636
rradius 127.477
rwrist -47.1238
rhand -19.7541 21.7979
rfingers 7.12502
rthumb 6.57724 -8.07997
lclavicle 3.07122e-014 -1.51076e-014
lhumerus -30.7603 -34.9849 86.6182
lradius 94.147
lwrist 34.259
lhand -12.3471 25.3259
lfingers 7.12502
lthumb 13.7225 54.8535
rfemur -14.246 1.9928 17.8983
rtibia 31.7389
rfoot -17.5474 -11.7632
rtoes -9.08903
lfemur -10.7245 1.11275 -19.4619
ltibia 29.3907
lfoot -19.3017 9.82994
ltoes -13.8785
3001
root -0.318122 17.8205 -2.08596 0.9561 -1.49949 1.4343
lowerback 8.8139 2.79168 -2.30789
upperback 4.49671 3.50347 -1.69165
thorax -0.305676 1.73243 -0.763178
lowerneck -1.13693 -3.26131 -5.7873
upperneck 10.106 -4.5603 4.90637
head 3.80429 -2.28569 2.50325
rclavicle 1.27222e-014 -6.75868e-015
rhumerus -388.429 23.3846 -437.734
rradius 126.966
rwrist -47.3658
rhand -19.8839 21.6639
rfingers 7.12502
rthumb 6.45193 -8.21783
lclavicle 1.27222e-014 -6.75868e-015
lhumerus -32.9334 -35.3263 87.7482
lradius 94.4336
lwrist 34.2454
lhand -12.2128 25.5451
lfingers 7.12502
lthumb 13.8519 55.0638
rfemur -14.3837 2.00548 17.4234
rtibia 31.4153
rfoot -17.37 -11.535
rtoes -8.60752
lfemur -10.8007 1.05027 -19.9385
ltibia 29.0283
lfoot -19.2832 10.0292
ltoes -13.6516
3002
root -0.308445 17.8354 -2.08441 1.21274 -1.52302 1.62699
lowerback 8.5601 2.85685 -2.35041
upperback 4.46419 3.59595 -1.69158
thorax -0.20307 1.77761 -0.73524
lowerneck -1.09435 -3.31666 -5.71496
upperneck 9.75269 -4.63998 5.01616
head 3.67801 -2.31854 2.52302
rclavicle 1.88845e-015 1.31198e-014
rhumerus -386.529 23.1111 -436.945
rradius 126.302
rwrist -47.7332
rhand -20.3036 21.4925
rfingers 7.12502
rthumb 6.04674 -8.40125
lclavicle 1.88845e-015 1.31198e-014
lhumerus -35.1928 -35.6007 88.8323
lradius 94.7948
lwrist 34.512
lhand -12.127 25.4463
lfingers 7.12502
lthumb 13.9346 54.9594
rfemur -14.5232 1.98628 17.1403
rtibia 31.1358
rfoot -17.1922 -11.3863
rtoes -8.43141
lfemur -10.8238 0.927941 -20.215
ltibia 28.5875
lfoot -19.1959 10.1621
ltoes -13.257
3003
root -0.300534 17.8496 -2.08214 1.39705 -1.6046 1.55864
lowerback 8.78432 2.94042 -2.18333
upperback 4.18804 3.70415 -1.60626
thorax -0.608209 1.83601 -0.771519
lowerneck -1.0035 -3.35884 -5.52438
upperneck 9.61504 -4.70705 5.03733
head 3.61004 -2.34509 2.49249
rclavicle -3.15571e-014 2.08724e-014
rhumerus -385.151 22.9976 -436.449
rradius 125.462
rwrist -47.7902
rhand -20.3989 21.3303
rfingers 7.12502
rthumb 5.95469 -8.56604
lclavicle -3.15571e-014 2.08724e-014
lhumerus -37.9859 -35.814 90.1617
lradius 95.2383
lwrist 34.7464
lhand -11.9176 25.1872
lfingers 7.12502
lthumb 14.1364 54.6863
rfemur -14.5757 2.08188 17.1776
rtibia 30.8345
rfoot -16.9576 -11.4095
rtoes -8.71073
lfemur -10.7752 0.87941 -20.1869
ltibia 28.1547
lfoot -19.1358 10.3047
ltoes -12.7788
